<svg width="640" height="360" viewBox="0 0 640 360" fill="none" xmlns="http://www.w3.org/2000/svg">
  <defs>
    <linearGradient id="sky3" x1="0" y1="0" x2="0" y2="1">
      <stop offset="0%" stop-color="#ecfccb" />
      <stop offset="100%" stop-color="#d9f99d" />
    </linearGradient>
    <linearGradient id="grass" x1="0" y1="0" x2="1" y2="0">
      <stop offset="0%" stop-color="#16a34a" />
      <stop offset="100%" stop-color="#065f46" />
    </linearGradient>
  </defs>
  <rect width="640" height="200" fill="url(#sky3)" />
  <rect y="200" width="640" height="160" fill="url(#grass)" />
  <g opacity="0.14" fill="#065f46">
    <path d="M30 210 C60 190, 100 190, 130 210 C160 230, 200 230, 230 210 C260 190, 300 190, 330 210 C360 230, 400 230, 430 210 C460 190, 500 190, 530 210 C560 230, 600 230, 630 210 L640 240 L0 240 Z" />
  </g>
  <g opacity="0.3" stroke="#14532d" stroke-width="6" stroke-linecap="round">
    <path d="M90 240 Q92 210 90 180" />
    <path d="M190 250 Q192 220 190 190" />
    <path d="M270 245 Q272 215 270 185" />
    <path d="M420 250 Q422 220 420 190" />
    <path d="M520 245 Q522 215 520 185" />
  </g>
  <g>
    <circle cx="90" cy="175" r="20" fill="#f97316" />
    <circle cx="190" cy="185" r="22" fill="#fb7185" />
    <circle cx="270" cy="175" r="18" fill="#facc15" />
    <circle cx="420" cy="185" r="20" fill="#22c55e" />
    <circle cx="520" cy="175" r="18" fill="#38bdf8" />
  </g>
  <g opacity="0.3" stroke="#0f172a" stroke-width="4" stroke-linecap="round">
    <path d="M120 60 H240" />
    <path d="M320 90 H460" />
    <path d="M80 110 H170" />
  </g>
</svg>
